<?xml version="1.0" standalone="no"?>
<!DOCTYPE svg PUBLIC "-//W3C//DTD SVG 20010904//EN"
 "http://www.w3.org/TR/2001/REC-SVG-20010904/DTD/svg10.dtd">
<svg version="1.0" xmlns="http://www.w3.org/2000/svg"
 width="512.000000pt" height="512.000000pt" viewBox="0 0 512.000000 512.000000"
 preserveAspectRatio="xMidYMid meet">
<metadata>
Created by potrace 1.14, written by Peter Selinger 2001-2017
</metadata>
<g transform="translate(0.000000,512.000000) scale(0.100000,-0.100000)"
fill="#000000" stroke="none">
<path d="M3368 4345 c-1 -1 -46 -5 -98 -9 -314 -20 -690 -164 -970 -374 -68
-51 -95 -74 -166 -139 -52 -48 -140 -152 -179 -213 -131 -202 -167 -319 -161
-525 7 -210 73 -377 202 -510 49 -51 149 -118 200 -135 l34 -12 -93 -91 c-129
-129 -216 -247 -319 -437 l-18 -31 -87 5 c-49 3 -149 8 -223 11 -74 3 -178 7
-230 10 -52 2 -156 7 -230 11 -74 3 -162 7 -195 9 -33 2 -112 6 -175 10 -63 3
-133 8 -155 10 -22 2 -83 7 -135 11 -52 4 -121 12 -154 19 -67 14 -85 11 -87
-14 -2 -21 -6 -5 68 -256 36 -121 87 -294 113 -385 27 -91 78 -264 114 -385
36 -121 63 -221 60 -224 -2 -2 -50 -6 -107 -8 -300 -9 -309 -10 -318 -24 -12
-20 -12 -23 12 -53 l21 -27 166 7 c92 3 187 7 212 8 l45 1 22 -53 c32 -78 60
-94 193 -107 36 -3 72 -8 80 -10 8 -2 38 -7 65 -10 28 -3 61 -7 75 -10 14 -2
45 -7 70 -10 59 -6 118 -14 155 -19 17 -3 53 -8 80 -11 28 -3 74 -10 103 -15
29 -5 56 -9 60 -8 6 2 51 -4 212 -27 14 -2 43 -6 65 -9 22 -3 141 -19 265 -36
124 -17 243 -33 265 -36 22 -2 51 -7 65 -9 14 -3 50 -7 80 -10 30 -3 67 -8 81
-10 79 -14 104 -14 118 -1 9 7 77 27 151 45 74 18 200 50 280 72 116 33 161
41 225 41 91 0 191 17 280 50 75 27 234 107 300 150 l50 33 600 -1 c330 -1
607 2 616 7 20 10 14 52 -9 71 -12 10 -127 13 -526 14 -281 1 -519 2 -530 3
-13 1 -3 14 37 47 106 87 218 246 254 362 35 113 48 310 28 442 -48 327 -221
622 -452 777 l-62 41 87 51 c301 177 505 419 582 692 28 97 34 258 15 359 -28
141 -69 241 -150 365 -190 291 -513 480 -855 501 -52 3 -100 7 -107 9 -6 2
-13 2 -15 0z m224 -110 c60 -9 201 -52 264 -81 380 -173 624 -580 557 -929 -7
-38 -15 -79 -17 -90 -6 -30 -58 -148 -73 -166 -7 -8 -13 -19 -13 -23 0 -19
-89 -134 -161 -208 -45 -46 -75 -74 -68 -63 8 11 16 22 19 25 21 19 82 116
108 170 35 75 57 142 70 219 10 57 8 224 -3 276 -47 225 -155 399 -323 523
-166 123 -348 182 -575 186 -143 3 -276 -15 -408 -55 -41 -12 -79 -23 -85 -25
-27 -5 -216 -89 -290 -130 -79 -42 -184 -108 -227 -143 -279 -222 -412 -465
-411 -746 1 -109 13 -169 58 -290 18 -47 -36 34 -74 110 -51 106 -69 194 -66
320 4 141 44 265 129 400 223 356 764 673 1242 728 42 5 302 -1 347 -8z m-715
-457 c-3 -8 -6 -5 -6 6 -1 11 2 17 5 13 3 -3 4 -12 1 -19z m-697 -1541 c0 -2
-19 -21 -42 -42 l-43 -40 40 43 c36 39 45 47 45 39z m-80 -91 c0 -2 -8 -10
-17 -17 -16 -13 -17 -12 -4 4 13 16 21 21 21 13z m-1760 -291 c41 -3 93 -8
115 -10 22 -2 87 -7 145 -10 58 -3 139 -8 180 -10 128 -8 442 -22 630 -30 116
-4 357 -15 440 -20 25 -1 71 -3 103 -4 l58 -1 19 -46 c25 -57 25 -67 1 -59
-35 11 -86 14 -356 20 -148 3 -310 7 -360 10 -49 3 -148 7 -220 10 -150 6
-280 13 -380 20 -260 17 -315 17 -342 0 -25 -17 -26 -19 -19 -89 10 -109 16
-150 40 -267 12 -59 18 -105 15 -103 -4 2 -10 19 -14 37 -4 17 -15 57 -25 87
-10 30 -36 120 -59 200 -23 80 -51 172 -62 204 -23 73 -24 79 -1 72 9 -3 51
-8 92 -11z m3906 -325 c12 -106 8 -222 -10 -305 -32 -151 -121 -289 -266 -412
-41 -35 -80 -67 -85 -71 -6 -4 -31 -21 -55 -38 -139 -97 -326 -187 -460 -220
-268 -66 -489 43 -492 243 -1 60 14 123 39 158 13 19 14 18 7 -10 -30 -119 33
-250 140 -290 87 -32 178 -25 331 27 328 111 585 311 719 560 42 78 80 190 92
268 4 30 9 58 10 63 1 4 2 40 4 80 1 59 3 67 11 42 4 -16 12 -59 15 -95z
m-3628 -938 c5 -17 6 -30 2 -27 -8 5 -41 104 -39 122 0 8 17 -35 37 -95z
m2092 2 c71 -10 121 -21 130 -31 13 -13 7 -14 -55 -10 -63 5 -205 41 -205 52
0 7 4 7 130 -11z"/>
</g>
</svg>
